<svg width="121" height="50" viewBox="0 0 121 50" fill="none" xmlns="http://www.w3.org/2000/svg">
<path d="M1.51262 10.2126L1.51767 10.274V10.3356V48.4925H117.278C117.646 48.0365 117.83 47.6868 117.962 47.343C118.11 46.9592 118.197 46.5892 118.328 46.0276C118.386 45.7824 118.452 45.5006 118.536 45.1651C118.749 44.0771 118.864 42.3209 118.629 40.4169C118.392 38.491 117.811 36.5361 116.73 34.9896C114.844 32.2943 111.945 30.8741 109.912 29.8788C109.548 29.7002 109.211 29.5352 108.913 29.379L108.518 29.2509C93.4143 24.3471 70.5874 16.9361 50.5302 10.9989C40.4992 8.02961 31.1825 5.4354 23.8807 3.70843C20.2274 2.84439 17.104 2.20356 14.6599 1.83997C13.4374 1.65811 12.4074 1.54906 11.579 1.51315C10.7266 1.4762 10.1834 1.52193 9.88694 1.59478C2.51573 3.40588 1.35915 8.3479 1.51262 10.2126Z" fill="#F0C350" stroke="#EAB049" stroke-width="3"/>
<ellipse cx="10.3861" cy="8.49723" rx="6.34972" ry="3.81202" transform="rotate(-26.7521 10.3861 8.49723)" fill="#FDD97D"/>
<path fill-rule="evenodd" clip-rule="evenodd" d="M120.19 40.8205C111.691 41.5361 102.939 41.9097 94.0002 41.9097C58.2588 41.9097 25.4966 35.937 0.0177002 26.0068V50H117.959C119.268 48.5786 119.466 47.7295 119.814 46.2299C119.87 45.9871 119.93 45.7271 120 45.445C120.222 44.3213 120.345 42.6513 120.19 40.8205Z" fill="#E1B43F" fill-opacity="0.67"/>
</svg>
