<svg width="121" height="50" viewBox="0 0 121 50" fill="none" xmlns="http://www.w3.org/2000/svg">
<path d="M118.747 10.2126L118.742 10.274V10.3356V48.4925H2.98123C2.61366 48.0365 2.42896 47.6868 2.29698 47.343C2.14961 46.9592 2.0627 46.5892 1.93077 46.0276C1.87317 45.7824 1.80698 45.5006 1.72342 45.1651C1.5105 44.0771 1.39516 42.3209 1.62992 40.4169C1.86738 38.491 2.44787 36.5361 3.52971 34.9896C5.41519 32.2943 8.31465 30.8741 10.3468 29.8788C10.7115 29.7002 11.0483 29.5352 11.3463 29.379L11.741 29.2509C26.845 24.3471 49.6718 16.9361 69.729 10.9989C79.76 8.02961 89.0767 5.4354 96.3786 3.70843C100.032 2.84439 103.155 2.20356 105.599 1.83997C106.822 1.65811 107.852 1.54906 108.68 1.51315C109.533 1.4762 110.076 1.52193 110.372 1.59478C117.744 3.40588 118.9 8.3479 118.747 10.2126Z" fill="#F0C350" stroke="#EAB049" stroke-width="3"/>
<ellipse rx="6.34972" ry="3.81202" transform="matrix(-0.892962 -0.450132 -0.450132 0.892962 109.873 8.49723)" fill="#FDD97D"/>
<path fill-rule="evenodd" clip-rule="evenodd" d="M0.0691757 40.8205C8.56792 41.5361 17.3203 41.9097 26.2591 41.9097C62.0005 41.9097 94.7626 35.937 120.242 26.0068V50H2.30057C0.990868 48.5786 0.793701 47.7295 0.445526 46.2299C0.389137 45.9871 0.328781 45.7271 0.259094 45.445C0.0370331 44.3213 -0.0853958 42.6513 0.0691757 40.8205Z" fill="#E1B43F" fill-opacity="0.67"/>
</svg>
