<svg width="56" height="54" viewBox="0 0 56 54" fill="none" xmlns="http://www.w3.org/2000/svg">
<path d="M1 1H55V49C55 51.2091 53.2091 53 51 53H5C2.79086 53 1 51.2091 1 49V1Z" fill="url(#paint0_linear)" stroke="url(#paint1_linear)" stroke-width="2"/>
<path d="M32.215 6.15C30.976 1.95 25.024 1.95 23.785 6.15L23.485 7.17C23.2999 7.79878 22.9764 8.37816 22.5382 8.86564C22.1 9.35312 21.5583 9.73633 20.9527 9.98719C20.3471 10.238 19.6931 10.3502 19.0385 10.3154C18.384 10.2806 17.7455 10.0997 17.17 9.786L16.24 9.276C12.391 7.182 8.182 11.391 10.279 15.237L10.786 16.17C12.124 18.63 10.855 21.693 8.17 22.485L7.15 22.785C2.95 24.024 2.95 29.976 7.15 31.215L8.17 31.515C8.79878 31.7001 9.37816 32.0236 9.86564 32.4618C10.3531 32.9 10.7363 33.4417 10.9872 34.0473C11.238 34.6529 11.3502 35.3069 11.3154 35.9615C11.2806 36.616 11.0997 37.2545 10.786 37.83L10.276 38.76C8.182 42.609 12.391 46.818 16.237 44.721L17.17 44.214C17.7455 43.9003 18.384 43.7194 19.0385 43.6846C19.6931 43.6498 20.3471 43.7619 20.9527 44.0128C21.5583 44.2637 22.1 44.6469 22.5382 45.1344C22.9764 45.6218 23.2999 46.2012 23.485 46.83L23.785 47.85C25.024 52.05 30.976 52.05 32.215 47.85L32.515 46.83C32.7001 46.2012 33.0236 45.6218 33.4618 45.1344C33.9 44.6469 34.4417 44.2637 35.0473 44.0128C35.6529 43.7619 36.3069 43.6498 36.9615 43.6846C37.616 43.7194 38.2545 43.9003 38.83 44.214L39.76 44.724C43.609 46.818 47.818 42.609 45.721 38.763L45.214 37.83C44.9003 37.2545 44.7194 36.616 44.6846 35.9615C44.6498 35.3069 44.7619 34.6529 45.0128 34.0473C45.2637 33.4417 45.6469 32.9 46.1344 32.4618C46.6218 32.0236 47.2012 31.7001 47.83 31.515L48.85 31.215C53.05 29.976 53.05 24.024 48.85 22.785L47.83 22.485C47.2012 22.2999 46.6218 21.9764 46.1344 21.5382C45.6469 21.1 45.2637 20.5583 45.0128 19.9527C44.7619 19.3471 44.6498 18.6931 44.6846 18.0385C44.7194 17.384 44.9003 16.7455 45.214 16.17L45.724 15.24C47.818 11.391 43.609 7.182 39.763 9.279L38.83 9.786C38.2545 10.0997 37.616 10.2806 36.9615 10.3154C36.3069 10.3502 35.6529 10.238 35.0473 9.98719C34.4417 9.73633 33.9 9.35312 33.4618 8.86564C33.0236 8.37816 32.7001 7.79878 32.515 7.17L32.215 6.15V6.15ZM28 35.79C25.6687 35.79 23.433 34.8639 21.7845 33.2155C20.1361 31.567 19.21 29.3313 19.21 27C19.21 24.6687 20.1361 22.433 21.7845 20.7845C23.433 19.1361 25.6687 18.21 28 18.21C30.3305 18.21 32.5655 19.1358 34.2133 20.7837C35.8612 22.4315 36.787 24.6665 36.787 26.997C36.787 29.3275 35.8612 31.5625 34.2133 33.2103C32.5655 34.8582 30.3305 35.784 28 35.784V35.79Z" fill="white"/>
<defs>
<linearGradient id="paint0_linear" x1="19" y1="3" x2="36" y2="65" gradientUnits="userSpaceOnUse">
<stop offset="0.348958" stop-color="#F0C350"/>
<stop offset="1" stop-color="#E1B43F" stop-opacity="0.67"/>
</linearGradient>
<linearGradient id="paint1_linear" x1="14.5" y1="6.5" x2="32.5" y2="45.5" gradientUnits="userSpaceOnUse">
<stop stop-color="#EAB049"/>
<stop offset="1" stop-color="#EAB049" stop-opacity="0"/>
</linearGradient>
</defs>
</svg>
